<?xml version="1.0" standalone="no"?>
<!DOCTYPE svg PUBLIC "-//W3C//DTD SVG 20010904//EN"
 "http://www.w3.org/TR/2001/REC-SVG-20010904/DTD/svg10.dtd">
<svg version="1.0" xmlns="http://www.w3.org/2000/svg"
 width="1024.000000pt" height="1024.000000pt" viewBox="0 0 1024.000000 1024.000000"
 preserveAspectRatio="xMidYMid meet">
<metadata>
Created by potrace 1.16, written by Peter Selinger 2001-2019
</metadata>
<g transform="translate(0.000000,1024.000000) scale(0.100000,-0.100000)"
fill="#000000" stroke="none">
<path d="M4034 9489 c-17 -5 -50 -29 -72 -53 -65 -71 -70 -170 -11 -236 l30
-35 -25 36 c-53 73 -40 199 20 199 14 0 60 12 102 26 42 14 91 26 109 27 66 4
-22 48 -92 46 -16 0 -44 -5 -61 -10z"/>
<path d="M9124 8631 c5 -7 -7 -28 -29 -52 -70 -78 -69 -119 4 -119 46 0 109
39 171 106 25 27 34 39 20 28 -28 -23 -57 -25 -52 -4 2 8 0 12 -3 8 -4 -4 -21
0 -36 8 -22 11 -34 12 -49 4 -16 -8 -18 -8 -14 4 3 8 0 17 -7 22 -8 4 -10 3
-5 -5z"/>
<path d="M5015 8479 c-533 -34 -1095 -257 -1525 -603 -353 -283 -650 -720
-801 -1178 -176 -531 -171 -1105 12 -1624 47 -134 169 -381 245 -497 188 -288
380 -490 674 -713 304 -230 687 -410 993 -465 l67 -12 0 -36 c0 -61 -20 -396
-36 -576 -20 -237 -22 -228 44 -176 20 16 98 64 172 106 297 171 643 423 855
625 51 49 80 69 107 74 47 9 322 113 419 160 41 19 115 59 164 89 50 29 123
73 163 96 146 85 402 290 525 421 282 300 467 602 581 951 88 269 122 535 113
879 -8 299 -44 498 -141 765 -90 247 -205 466 -360 689 -114 164 -329 383
-495 505 -287 213 -730 406 -1086 474 -231 45 -469 61 -690 46z m467 -380
c214 -26 482 -103 673 -194 134 -63 346 -192 450 -273 108 -83 276 -255 367
-372 271 -351 432 -788 463 -1255 8 -124 -17 -435 -46 -554 -40 -172 -122
-405 -176 -501 -139 -246 -169 -292 -285 -431 -198 -240 -456 -446 -729 -585
-76 -38 -413 -156 -572 -199 -50 -14 -73 -29 -163 -111 -57 -53 -104 -99 -104
-103 0 -4 -29 -31 -64 -60 -35 -28 -104 -88 -153 -132 -115 -105 -119 -107
-116 -61 1 21 4 123 6 229 l3 192 -45 6 c-269 33 -344 49 -551 116 -308 101
-516 223 -786 462 -371 330 -601 714 -689 1152 -40 201 -48 296 -43 536 4 196
8 240 32 349 54 248 128 471 199 600 192 349 431 611 747 815 370 241 669 343
1135 389 63 6 355 -3 447 -15z"/>
<path d="M5465 7560 c4 -12 10 -82 14 -155 4 -84 11 -139 20 -148 7 -9 37 -19
67 -23 33 -4 54 -11 54 -19 0 -15 -30 -55 -92 -123 -45 -47 -49 -56 -46 -95 3
-39 5 -42 36 -45 18 -2 58 2 90 8 54 12 63 18 170 124 62 61 122 125 133 143
19 31 38 180 39 303 l0 45 -246 4 -246 3 7 -22z"/>
<path d="M6238 7385 l3 -155 69 0 c39 0 70 -3 70 -7 0 -5 -32 -41 -70 -80 -68
-71 -76 -88 -61 -127 6 -15 20 -19 80 -21 l72 -3 53 46 c29 26 82 81 117 122
l64 75 6 145 c4 80 6 146 5 146 0 1 -93 4 -206 8 l-205 6 3 -155z"/>
<path d="M4156 7300 c-73 -13 -141 -37 -232 -80 -202 -97 -366 -336 -389 -566
-8 -81 13 -220 45 -308 45 -119 185 -290 301 -366 64 -43 174 -87 253 -101
107 -18 274 -7 368 24 204 70 371 221 464 423 126 272 5 661 -262 844 -59 41
-196 104 -258 119 -66 16 -229 22 -290 11z m237 -470 c88 -44 156 -143 157
-226 0 -53 -42 -136 -88 -174 -21 -17 -61 -42 -90 -57 -116 -57 -279 -4 -348
112 -31 54 -42 140 -24 203 16 60 79 126 143 152 73 28 183 24 250 -10z"/>
<path d="M6015 6828 c-183 -23 -370 -128 -488 -273 -64 -79 -142 -241 -158
-330 -7 -38 -13 -117 -13 -175 1 -87 6 -119 28 -185 38 -110 79 -184 142 -253
125 -139 349 -232 557 -232 76 0 256 39 283 61 38 31 8 -20 -111 -191 -155
-223 -334 -402 -552 -552 -78 -54 -146 -98 -152 -98 -23 0 -8 -21 75 -101 48
-46 114 -115 147 -154 77 -90 83 -93 115 -63 15 14 72 56 127 93 55 38 139 99
186 137 83 65 275 256 322 321 13 18 50 68 82 111 32 44 77 114 100 155 23 42
49 90 58 106 48 86 101 228 134 361 38 149 38 149 37 354 0 194 -2 210 -28
294 -84 276 -256 468 -506 568 -110 44 -259 62 -385 46z m218 -468 c109 -34
197 -128 213 -228 16 -101 -76 -244 -188 -292 -161 -70 -370 13 -422 167 -81
236 140 432 397 353z"/>
<path d="M3584 5553 l-42 -4 4 -62 c2 -34 6 -118 8 -187 5 -135 19 -190 63
-248 35 -47 83 -64 176 -66 l79 -1 -6 -34 c-12 -73 -142 -219 -241 -272 -25
-13 -45 -29 -45 -35 0 -20 60 -178 75 -198 14 -19 21 -15 149 72 92 63 164
122 226 186 106 108 127 140 171 251 42 108 50 245 23 444 l-18 139 -50 7
c-60 7 -513 14 -572 8z"/>
<path d="M4355 5394 c-9 -193 -3 -263 27 -321 38 -74 64 -88 169 -88 84 0 89
-1 89 -22 0 -61 -195 -257 -298 -299 -7 -3 69 -199 81 -212 32 -32 267 117
387 245 68 73 92 109 142 208 60 121 60 121 70 245 5 69 8 186 6 260 l-3 135
-331 3 -332 2 -7 -156z"/>
<path d="M9505 7381 c-3 -12 -10 -19 -14 -17 -3 3 -6 -12 -5 -32 1 -20 -1 -48
-6 -62 -4 -14 -11 -34 -15 -45 -5 -15 -8 -17 -15 -5 -5 9 -8 2 -7 -20 2 -31
-1 -35 -28 -41 l-30 -6 30 -5 c28 -5 29 -6 8 -13 -13 -4 -23 -14 -23 -22 0 -8
5 -11 10 -8 6 3 10 1 10 -4 0 -6 -4 -11 -10 -11 -5 0 -9 -3 -9 -7 5 -28 -3
-43 -22 -43 -20 0 -21 4 -16 56 7 64 2 84 -22 84 -13 0 -16 -14 -19 -88 -2
-48 -7 -88 -13 -90 -15 -6 -10 -42 6 -42 18 0 18 -5 5 -30 -7 -13 -16 -17 -28
-13 -15 6 -15 5 -3 -10 9 -11 10 -17 2 -17 -6 0 -11 -7 -11 -15 0 -8 -4 -15
-10 -15 -5 0 -10 -6 -10 -14 0 -19 -40 -67 -51 -61 -5 4 -9 -1 -9 -9 0 -9 -7
-16 -16 -16 -9 0 -14 -6 -12 -12 5 -14 -15 -38 -31 -38 -6 0 -11 -5 -11 -11 0
-14 -26 -39 -34 -34 -3 3 -4 2 -1 -2 3 -3 -11 -21 -30 -40 -19 -19 -35 -37
-35 -41 0 -4 48 41 106 98 191 190 312 401 369 645 14 64 15 102 0 56z"/>
<path d="M7812 7173 c1 -47 2 -51 5 -18 7 66 7 66 187 60 88 -3 162 -8 165
-11 2 -2 -8 -4 -22 -4 -34 0 -36 -24 -5 -57 l21 -23 -21 0 c-15 0 -22 -6 -22
-20 0 -14 7 -20 21 -20 21 0 22 -3 16 -80 -5 -79 -5 -80 19 -80 13 0 24 6 24
13 0 8 3 8 9 -2 6 -10 5 -23 -1 -35 -6 -12 -11 -22 -10 -23 8 -12 -5 -42 -43
-100 -33 -49 -36 -58 -14 -33 72 82 97 168 106 360 l6 125 -222 3 -221 2 2
-57z"/>
<path d="M9082 7122 c-17 -26 -28 -49 -26 -52 3 -2 9 2 14 10 6 8 10 11 10 5
0 -17 -16 -36 -29 -33 -14 4 -124 -126 -110 -130 9 -4 54 46 54 60 0 13 23 30
28 21 3 -4 26 -7 51 -5 37 3 46 8 46 23 0 12 7 19 20 19 18 0 20 7 20 60 0 33
-3 60 -7 61 -5 0 -15 2 -24 4 -11 2 -28 -14 -47 -43z"/>
<path d="M8862 4729 c-18 -5 -30 -14 -27 -19 3 -5 0 -7 -7 -5 -8 3 -29 -11
-48 -31 -29 -31 -31 -34 -8 -18 15 10 28 22 28 26 0 4 7 5 16 1 14 -5 13 -8
-7 -20 -17 -10 -18 -12 -4 -7 11 4 35 7 54 6 19 -1 37 2 40 7 3 5 36 11 72 12
50 3 72 0 92 -14 15 -10 25 -22 22 -26 -3 -5 2 -12 11 -15 8 -3 12 -11 9 -16
-4 -6 -1 -18 6 -26 10 -12 9 -17 -4 -27 -19 -14 -21 -26 -19 -115 1 -35 6 -61
11 -58 4 3 6 -6 3 -19 -2 -14 -9 -28 -14 -31 -6 -4 -8 3 -3 17 4 15 3 19 -3
11 -5 -8 -24 -11 -53 -8 -43 4 -46 2 -115 -63 -38 -36 -85 -79 -102 -94 -37
-34 -38 -38 -13 -61 18 -17 23 -17 76 -2 45 14 70 30 131 88 45 43 73 77 70
85 -3 8 -1 11 4 8 18 -11 51 83 57 161 7 92 -11 145 -68 202 -57 55 -129 73
-207 51z"/>
<path d="M9312 4728 c-43 -14 -108 -86 -123 -138 -14 -48 0 -123 28 -150 9 -8
13 -10 9 -3 -3 6 -2 14 3 18 6 3 8 -5 5 -18 -3 -19 4 -30 35 -52 35 -23 48
-26 100 -23 34 1 61 0 61 -3 0 -10 -112 -122 -155 -156 -40 -31 -40 -31 -24
-60 19 -34 39 -33 115 1 140 64 234 209 234 358 0 79 -39 169 -74 168 -6 0 -3
-5 6 -11 16 -9 16 -11 -2 -29 -24 -24 -50 -26 -50 -5 0 8 -4 15 -10 15 -17 0
-11 37 8 46 9 4 21 6 25 5 22 -4 -8 21 -40 34 -40 17 -102 18 -151 3z"/>
<path d="M8638 3803 c-20 -3 -28 -10 -29 -26 -1 -20 -2 -20 -9 3 -7 21 -8 18
-9 -20 -1 -25 -4 -55 -7 -68 -4 -13 -3 -22 2 -20 5 1 19 -6 31 -17 17 -14 20
-22 11 -32 -7 -9 -7 -13 1 -13 6 0 11 -7 11 -15 0 -8 9 -15 19 -15 11 0 22 -9
26 -19 3 -10 18 -22 33 -26 23 -6 34 1 84 53 l58 60 0 81 0 81 -97 -1 c-54 -1
-110 -4 -125 -6z"/>
<path d="M9020 3726 c0 -41 4 -78 10 -81 6 -4 7 6 3 27 -3 19 -2 30 3 25 5 -5
9 -46 9 -92 0 -53 5 -88 12 -96 21 -21 90 7 143 57 l48 45 -5 72 c-3 40 -9 73
-13 75 -5 2 -6 10 -3 18 8 20 51 18 56 -3 4 -14 5 -12 6 5 1 22 0 22 -134 22
l-135 0 0 -74z"/>
<path d="M1289 3182 c-40 -21 -53 -33 -51 -48 2 -15 1 -16 -7 -5 -7 11 -20 4
-60 -34 -85 -80 -141 -185 -155 -292 -6 -45 -4 -52 9 -47 9 4 13 15 11 28 -2
11 -1 15 1 9 5 -15 43 -18 43 -3 0 6 8 10 18 10 11 0 27 9 37 20 10 11 24 20
32 20 8 0 12 4 8 9 -3 5 6 18 20 29 26 20 33 42 14 42 -6 0 -9 10 -7 23 2 12
8 21 14 20 6 -1 11 4 11 12 0 8 -4 12 -9 9 -4 -3 -5 2 -2 10 3 9 10 13 15 10
5 -3 9 4 9 15 0 12 5 21 10 21 6 0 10 11 10 25 0 29 51 88 58 67 6 -19 22 -14
22 8 0 13 7 20 19 20 12 0 20 9 23 25 4 21 1 25 -17 25 -13 0 -47 -13 -76 -28z"/>
<path d="M8662 2925 c-39 -17 -135 -106 -163 -152 -33 -53 -15 -49 19 4 l31
48 7 -32 c6 -30 24 -47 24 -23 0 6 7 10 16 10 9 0 29 14 44 30 17 18 38 30 54
30 19 0 26 5 26 20 0 13 7 20 20 20 33 0 25 36 -11 49 -18 6 -32 11 -33 11 -1
-1 -16 -7 -34 -15z"/>
<path d="M8488 2726 c-30 -23 -58 -130 -56 -215 1 -47 3 -60 5 -33 4 42 4 42
44 42 32 0 39 3 39 20 0 13 7 20 19 20 21 0 37 40 20 51 -8 4 -7 14 1 30 8 14
9 24 3 26 -6 2 -8 15 -5 28 3 20 0 25 -17 25 -11 0 -21 5 -21 10 0 13 -11 12
-32 -4z"/>
<path d="M9320 2699 c0 -18 -4 -20 -32 -15 -51 9 -63 -4 -42 -47 10 -21 21
-37 26 -37 4 0 8 -18 8 -40 0 -33 3 -40 20 -40 13 0 20 -7 20 -20 0 -23 1 -24
32 -9 17 7 32 6 61 -6 46 -19 48 -29 5 -20 -22 4 -28 3 -19 -3 11 -8 11 -10 0
-14 -10 -3 -7 -8 9 -17 14 -7 22 -8 22 -1 0 5 12 10 26 10 l27 0 -6 83 c-8
105 -15 130 -35 122 -8 -3 -30 -3 -48 1 -25 5 -34 11 -34 26 0 18 -21 48 -34
48 -3 0 -6 -10 -6 -21z"/>
<path d="M8778 2363 c12 -8 22 -23 22 -33 0 -9 8 -25 19 -34 10 -9 21 -30 25
-47 3 -17 12 -29 21 -29 8 0 15 -4 15 -10 0 -15 70 -12 86 4 8 8 14 24 14 36
0 15 8 22 33 27 17 4 35 6 39 5 4 -1 5 5 1 14 -3 9 -12 13 -22 9 -68 -27 -166
-8 -221 41 -20 19 -41 34 -46 33 -5 0 1 -7 14 -16z"/>
<path d="M1133 2041 c-13 -6 -26 -25 -32 -48 -12 -42 -14 -135 -5 -170 7 -27
26 -31 22 -5 -2 14 6 18 40 20 37 3 44 0 49 -17 3 -12 11 -21 18 -21 7 0 24
-21 38 -47 34 -66 27 -101 -33 -166 l-48 -53 32 4 c29 3 34 0 46 -27 12 -30
20 -35 49 -32 11 2 11 0 0 -12 -10 -10 -16 -11 -21 -4 -4 6 -8 9 -10 7 -2 -3
-9 -15 -16 -28 -12 -22 -12 -23 12 -10 14 7 61 48 105 91 78 77 112 130 124
195 4 19 17 42 29 51 l21 18 -34 104 -34 104 -50 25 c-42 21 -66 24 -165 27
-63 2 -125 -1 -137 -6z"/>
<path d="M1577 2043 c-11 -11 -8 -223 3 -223 6 0 10 3 10 8 0 4 26 5 59 2 55
-5 61 -8 95 -48 36 -44 45 -82 26 -112 -5 -8 -10 -11 -10 -6 0 5 -17 -17 -38
-50 -22 -32 -71 -89 -110 -126 -40 -37 -72 -71 -72 -75 0 -5 12 -21 28 -36
l27 -26 102 50 c223 107 314 265 313 544 0 33 -4 67 -10 75 -6 9 -35 17 -87
21 -101 10 -328 11 -336 2z m183 -514 c0 -5 9 -9 19 -9 29 0 31 -41 4 -62 -11
-10 -31 -18 -42 -18 -12 0 -21 -4 -21 -8 0 -5 -11 -14 -25 -20 -21 -10 -28 -8
-54 19 l-30 30 36 37 c29 31 44 38 75 39 21 0 38 -3 38 -8z"/>
<path d="M9133 1959 c-11 -24 -59 -93 -106 -153 -48 -60 -84 -113 -80 -119 3
-5 1 -7 -4 -4 -13 8 -45 -27 -36 -39 5 -5 4 -6 -1 -1 -12 9 -47 -23 -39 -36 3
-5 1 -7 -5 -3 -11 7 -109 -72 -104 -86 1 -4 -1 -7 -6 -6 -11 4 -62 -38 -57
-46 3 -3 2 -4 -1 -1 -6 4 -88 -50 -148 -98 -25 -20 -27 -25 -12 -30 9 -4 14
-3 11 2 -3 5 4 12 15 16 11 4 17 11 14 17 -5 7 -1 9 9 5 11 -4 17 -1 17 7 0 8
9 16 20 19 16 4 20 0 20 -19 0 -17 6 -24 20 -24 11 0 20 -4 20 -10 0 -5 18
-10 40 -10 22 0 40 5 40 10 0 6 27 10 60 10 48 0 60 3 60 16 0 22 32 53 38 36
2 -6 12 -12 22 -12 10 0 22 -4 25 -10 3 -5 12 -10 18 -10 7 0 4 5 -5 11 -23
13 -23 36 -1 57 12 12 18 13 21 4 7 -23 22 -12 22 18 0 23 5 30 19 30 11 0 27
3 37 7 12 4 15 3 10 -5 -10 -17 10 -15 28 3 8 8 20 15 26 15 18 0 37 23 33 40
-5 22 15 49 25 33 8 -13 47 28 99 102 28 40 99 184 107 215 3 14 -5 1 -19 -27
-13 -29 -30 -53 -37 -53 -10 0 -9 3 1 9 8 5 15 25 16 46 1 33 -2 38 -36 56
-21 10 -50 19 -65 19 -32 0 -96 21 -105 34 -4 5 -16 -11 -26 -35z"/>
<path d="M7870 1854 c0 -153 29 -202 131 -218 21 -3 39 -10 39 -15 0 -12 -148
-163 -184 -188 l-28 -20 27 -44 c15 -24 29 -46 31 -48 1 -1 40 19 85 45 97 58
201 165 242 247 33 67 50 179 41 268 l-6 67 -37 6 c-20 3 -105 6 -188 6 l-153
0 0 -106z"/>
<path d="M7528 1943 l-116 -4 5 -77 c9 -124 59 -202 144 -222 26 -7 54 -10 61
-7 7 3 3 6 -9 6 -12 1 -34 6 -48 13 -24 11 -25 13 -8 19 12 5 5 8 -23 8 -37 1
-41 4 -62 46 -26 54 -26 55 -7 55 8 0 15 -4 15 -10 0 -6 40 -10 100 -10 93 0
100 -1 100 -20 0 -11 -7 -20 -15 -20 -22 0 -18 -37 4 -50 11 -5 33 -10 50 -10
23 0 31 -6 38 -27 9 -27 9 -27 27 17 10 24 20 65 23 91 6 53 -4 168 -16 188
-10 16 -87 20 -263 14z"/>
<path d="M8326 985 c-4 -16 -13 -25 -26 -25 -13 0 -20 -7 -20 -20 0 -13 -7
-20 -19 -20 -13 0 -21 -8 -23 -22 -3 -20 -11 -24 -55 -28 -39 -4 -53 -2 -53 7
0 8 -11 12 -27 12 -26 -2 -26 -2 -4 -6 22 -4 23 -7 17 -61 -28 -248 -42 -442
-34 -442 26 0 209 101 288 159 43 32 260 212 260 216 0 2 -13 -2 -30 -8 -16
-6 -30 -16 -30 -22 0 -5 -7 3 -15 19 -8 15 -15 36 -15 45 0 19 -50 71 -67 71
-7 0 -38 -29 -69 -65 -32 -36 -61 -65 -65 -65 -14 0 -19 52 -8 93 12 43 17
173 7 183 -3 3 -8 -7 -12 -21z"/>
<path d="M1777 701 c3 -13 -1 -21 -14 -25 -17 -5 -20 -17 -21 -78 -1 -39 -7
-77 -13 -84 -7 -9 -6 -12 6 -10 9 1 56 36 103 77 120 103 161 142 136 130 -11
-5 -26 -17 -33 -25 -8 -9 -18 -13 -24 -9 -5 3 -7 1 -3 -5 9 -15 -49 -43 -63
-29 -6 6 -11 17 -11 24 0 7 -9 13 -20 13 -13 0 -20 7 -20 20 0 11 -6 20 -14
20 -9 0 -12 -7 -9 -19z"/>
</g>
</svg>
